<svg width="0" height="0"><symbol xmlns="http://www.w3.org/2000/svg" id="caret-left" viewBox="0 0 256 256"><path d="M168.49 199.51a12 12 0 0 1-17 17l-80-80a12 12 0 0 1 0-17l80-80a12 12 0 0 1 17 17L97 128Z"/></symbol><symbol xmlns="http://www.w3.org/2000/svg" id="caret-right" viewBox="0 0 256 256"><path d="m184.49 136.49-80 80a12 12 0 0 1-17-17L159 128 87.51 56.49a12 12 0 1 1 17-17l80 80a12 12 0 0 1-.02 17Z"/></symbol><symbol xmlns="http://www.w3.org/2000/svg" id="check" viewBox="0 0 256 256"><path d="m232.49 80.49-128 128a12 12 0 0 1-17 0l-56-56a12 12 0 1 1 17-17L96 183 215.51 63.51a12 12 0 0 1 17 17Z"/></symbol><symbol xmlns="http://www.w3.org/2000/svg" id="x" viewBox="0 0 256 256"><path d="M205.66 194.34a8 8 0 0 1-11.32 11.32L128 139.31l-66.34 66.35a8 8 0 0 1-11.32-11.32L116.69 128 50.34 61.66a8 8 0 0 1 11.32-11.32L128 116.69l66.34-66.35a8 8 0 0 1 11.32 11.32L139.31 128Z"/></symbol></svg>