<svg width="0" height="0"><symbol xmlns="http://www.w3.org/2000/svg" id="profile" viewBox="0 0 256 256"><path d="M128 24a104 104 0 1 0 104 104A104.11 104.11 0 0 0 128 24ZM74.08 197.5a64 64 0 0 1 107.84 0 87.83 87.83 0 0 1-107.84 0ZM96 120a32 32 0 1 1 32 32 32 32 0 0 1-32-32Zm97.76 66.41a79.66 79.66 0 0 0-36.06-28.75 48 48 0 1 0-59.4 0 79.66 79.66 0 0 0-36.06 28.75 88 88 0 1 1 131.52 0Z"/></symbol><symbol xmlns="http://www.w3.org/2000/svg" id="shopping-cart" viewBox="0 0 256 256"><path d="M104 216a16 16 0 1 1-16-16 16 16 0 0 1 16 16Zm88-16a16 16 0 1 0 16 16 16 16 0 0 0-16-16Zm47.71-125.86-25.64 92.28A24.06 24.06 0 0 1 191 184H92.16A24.06 24.06 0 0 1 69 166.42L33.92 40H16a8 8 0 0 1 0-16h24a8 8 0 0 1 7.71 5.86L57.19 64H232a8 8 0 0 1 7.71 10.14ZM221.47 80H61.64l22.81 82.14a8 8 0 0 0 7.71 5.86H191a8 8 0 0 0 7.71-5.86Z"/></symbol></svg>