<svg width="0" height="0"><symbol xmlns="http://www.w3.org/2000/svg" id="exit" viewBox="0 0 256 256"><path d="M120 216a8 8 0 0 1-8 8H48a8 8 0 0 1-8-8V40a8 8 0 0 1 8-8h64a8 8 0 0 1 0 16H56v160h56a8 8 0 0 1 8 8Zm109.66-93.66-40-40a8 8 0 0 0-11.32 11.32L204.69 120H112a8 8 0 0 0 0 16h92.69l-26.35 26.34a8 8 0 0 0 11.32 11.32l40-40a8 8 0 0 0 0-11.32Z"/></symbol><symbol xmlns="http://www.w3.org/2000/svg" id="profile" viewBox="0 0 256 256"><path d="M128 24a104 104 0 1 0 104 104A104.11 104.11 0 0 0 128 24ZM74.08 197.5a64 64 0 0 1 107.84 0 87.83 87.83 0 0 1-107.84 0ZM96 120a32 32 0 1 1 32 32 32 32 0 0 1-32-32Zm97.76 66.41a79.66 79.66 0 0 0-36.06-28.75 48 48 0 1 0-59.4 0 79.66 79.66 0 0 0-36.06 28.75 88 88 0 1 1 131.52 0Z"/></symbol><symbol xmlns="http://www.w3.org/2000/svg" id="shopping-cart" viewBox="0 0 256 256"><path d="M104 216a16 16 0 1 1-16-16 16 16 0 0 1 16 16Zm88-16a16 16 0 1 0 16 16 16 16 0 0 0-16-16Zm47.71-125.86-25.64 92.28A24.06 24.06 0 0 1 191 184H92.16A24.06 24.06 0 0 1 69 166.42L33.92 40H16a8 8 0 0 1 0-16h24a8 8 0 0 1 7.71 5.86L57.19 64H232a8 8 0 0 1 7.71 10.14ZM221.47 80H61.64l22.81 82.14a8 8 0 0 0 7.71 5.86H191a8 8 0 0 0 7.71-5.86Z"/></symbol><symbol xmlns="http://www.w3.org/2000/svg" id="star-empty" viewBox="0 0 256 256"><path d="M239.18 97.26A16.38 16.38 0 0 0 224.92 86l-59-4.76-22.78-55.09a16.36 16.36 0 0 0-30.27 0L90.11 81.23 31.08 86a16.46 16.46 0 0 0-9.37 28.86l45 38.83L53 211.75a16.38 16.38 0 0 0 24.5 17.82l50.5-31.08 50.53 31.08A16.4 16.4 0 0 0 203 211.75l-13.76-58.07 45-38.83a16.43 16.43 0 0 0 4.94-17.59Zm-15.34 5.47-48.7 42a8 8 0 0 0-2.56 7.91l14.88 62.8a.37.37 0 0 1-.17.48c-.18.14-.23.11-.38 0l-54.72-33.65a8 8 0 0 0-8.38 0l-54.72 33.67c-.15.09-.19.12-.38 0a.37.37 0 0 1-.17-.48l14.88-62.8a8 8 0 0 0-2.56-7.91l-48.7-42c-.12-.1-.23-.19-.13-.5s.18-.27.33-.29l63.92-5.16a8 8 0 0 0 6.72-4.94l24.62-59.61c.08-.17.11-.25.35-.25s.27.08.35.25L153 91.86a8 8 0 0 0 6.75 4.92l63.92 5.16c.15 0 .24 0 .33.29s0 .4-.16.5Z"/></symbol><symbol xmlns="http://www.w3.org/2000/svg" id="star-fill" viewBox="0 0 256 256"><path d="m234.29 114.85-45 38.83L203 211.75a16.4 16.4 0 0 1-24.5 17.82L128 198.49l-50.53 31.08A16.4 16.4 0 0 1 53 211.75l13.76-58.07-45-38.83A16.46 16.46 0 0 1 31.08 86l59-4.76 22.76-55.08a16.36 16.36 0 0 1 30.27 0l22.75 55.08 59 4.76a16.46 16.46 0 0 1 9.37 28.86Z"/></symbol></svg>